<svg width="512" height="512" viewBox="0 0 512 512" fill="none" xmlns="http://www.w3.org/2000/svg">
<path d="M266.493 14.4152L279.59 25.7937C286.514 31.8083 296.259 33.3518 304.702 29.7709L320.674 22.9966C328.014 19.8835 336.525 22.6491 340.634 29.4819L349.574 44.3506C354.299 52.2102 363.091 56.6897 372.227 55.893L389.511 54.3859C397.453 53.6933 404.694 58.9539 406.489 66.7217L410.397 83.6253C412.463 92.5605 419.44 99.5374 428.375 101.603L445.278 105.511C453.046 107.306 458.307 114.547 457.614 122.489L456.107 139.773C455.31 148.909 459.79 157.701 467.649 162.426L482.518 171.366C489.351 175.475 492.116 183.986 489.003 191.326L482.229 207.298C478.648 215.741 480.192 225.486 486.206 232.41L497.585 245.507C502.814 251.525 502.814 260.475 497.585 266.493L486.206 279.59C480.192 286.514 478.648 296.259 482.229 304.702L489.003 320.674C492.116 328.014 489.351 336.525 482.518 340.634L467.649 349.574C459.79 354.299 455.31 363.091 456.107 372.227L457.614 389.511C458.307 397.453 453.046 404.694 445.278 406.489L428.375 410.397C419.439 412.463 412.463 419.44 410.397 428.375L406.489 445.278C404.694 453.046 397.453 458.307 389.511 457.614L372.227 456.107C363.091 455.31 354.299 459.79 349.574 467.649L340.634 482.518C336.525 489.351 328.014 492.116 320.674 489.003L304.702 482.229C296.259 478.648 286.514 480.192 279.59 486.206L266.493 497.585C260.475 502.814 251.525 502.814 245.507 497.585L232.41 486.206C225.486 480.192 215.741 478.648 207.298 482.229L191.326 489.003C183.986 492.116 175.475 489.351 171.366 482.518L162.426 467.649C157.701 459.79 148.909 455.31 139.773 456.107L122.489 457.614C114.547 458.307 107.306 453.046 105.511 445.278L101.603 428.375C99.5374 419.439 92.5605 412.463 83.6253 410.397L66.7217 406.489C58.9539 404.694 53.6933 397.453 54.3859 389.511L55.893 372.227C56.6897 363.091 52.2102 354.299 44.3506 349.574L29.4819 340.634C22.6491 336.525 19.8835 328.014 22.9966 320.674L29.7709 304.702C33.3518 296.259 31.8083 286.514 25.7936 279.59L14.4152 266.493C9.1864 260.475 9.18641 251.525 14.4152 245.507L25.7937 232.41C31.8083 225.486 33.3518 215.741 29.7709 207.298L22.9966 191.326C19.8835 183.986 22.6491 175.475 29.4819 171.366L44.3506 162.426C52.2102 157.701 56.6897 148.909 55.893 139.773L54.3859 122.489C53.6933 114.547 58.9539 107.306 66.7217 105.511L83.6253 101.603C92.5605 99.5374 99.5374 92.5605 101.603 83.6253L105.511 66.7217C107.306 58.9539 114.547 53.6933 122.489 54.3859L139.773 55.893C148.909 56.6897 157.701 52.2102 162.426 44.3506L171.366 29.4819C175.475 22.6491 183.986 19.8835 191.326 22.9966L207.298 29.7709C215.741 33.3518 225.486 31.8083 232.41 25.7936L245.507 14.4152C251.525 9.1864 260.475 9.18641 266.493 14.4152Z" stroke="black" stroke-width="8"/>
<g clip-path="url(#clip0_3_22)">
<path fill-rule="evenodd" clip-rule="evenodd" d="M234.033 129.038C224.043 130.848 213.308 136.072 207.428 141.985C204.543 144.886 196.437 157.158 188.583 170.511C181.002 183.401 172.967 196.848 170.729 200.393C160.824 216.077 163.84 233.693 179.183 249.775C217.22 289.652 288.899 257.196 332.773 244.123C333.889 243.79 341.345 241.352 349.33 238.669L363.849 233.79L378.924 208.697C387.216 194.896 394 183.255 394 182.827C394 178.379 345.232 150.494 320.747 140.941C308.217 136.054 293.146 131.582 281.903 129.417C266.007 126.357 249.869 126.171 234.033 129.038Z" stroke="black" stroke-width="8"/>
<path d="M325.687 245.277C329.458 247.865 333.101 250.915 336.6 254.476C350.557 268.68 354.413 287.832 344.896 305.181C322.682 345.672 310.74 365.787 306.171 370.404C295.905 380.777 279.765 385.964 257.641 386C230.832 386.042 203.797 378.786 170.356 362.575C150.548 352.972 118 333.282 118 330.901C118 330.344 121.973 322.879 126.828 314.312C131.684 305.745 139.229 292.33 143.594 284.497L151.53 270.258L163.883 266.422C170.678 264.312 178.01 261.86 180.178 260.973L184.118 259.36C185.604 258.822 187.095 258.277 188.59 257.729" stroke="black" stroke-width="8"/>
<path d="M362.763 233.369C362.763 233.369 290.597 187.663 237.074 181.65C180.544 175.298 168.516 206.306 168.516 206.306" stroke="black" stroke-width="6"/>
<path d="M316.456 355.33C316.456 355.33 327.583 292.71 241.283 292.71C208.809 292.71 120.406 330.673 120.406 330.673" stroke="black" stroke-width="6"/>
</g>
<defs>
<clipPath id="clip0_3_22">
<rect width="284" height="267" fill="white" transform="translate(114 123)"/>
</clipPath>
</defs>
</svg>
